<mxfile host="app.diagrams.net" modified="2023-12-22T15:38:54.873Z" agent="Mozilla/5.0 (Windows NT 10.0; Win64; x64) AppleWebKit/537.36 (KHTML, like Gecko) Chrome/120.0.0.0 Safari/537.36 Edg/120.0.0.0" etag="gTIw5ta6-kxLtVpBjNBs" version="22.1.11" type="github">
  <diagram id="R2lEEEUBdFMjLlhIrx00" name="Page-1">
    <mxGraphModel dx="2160" dy="801" grid="0" gridSize="1" guides="0" tooltips="1" connect="0" arrows="1" fold="1" page="1" pageScale="1" pageWidth="850" pageHeight="1100" background="#030303" math="0" shadow="0" extFonts="Permanent Marker^https://fonts.googleapis.com/css?family=Permanent+Marker">
      <root>
        <mxCell id="0" />
        <mxCell id="1" parent="0" />
        <mxCell id="C-vyLk0tnHw3VtMMgP7b-2" value="Warranty Service" style="shape=table;startSize=30;container=1;collapsible=1;childLayout=tableLayout;fixedRows=1;rowLines=0;fontStyle=1;align=center;resizeLast=1;labelBackgroundColor=none;fillColor=#182E3E;strokeColor=#FFFFFF;fontColor=#FFFFFF;" parent="1" vertex="1">
          <mxGeometry x="330" y="130" width="250" height="140" as="geometry" />
        </mxCell>
        <mxCell id="C-vyLk0tnHw3VtMMgP7b-3" value="" style="shape=partialRectangle;collapsible=0;dropTarget=0;pointerEvents=0;fillColor=none;points=[[0,0.5],[1,0.5]];portConstraint=eastwest;top=0;left=0;right=0;bottom=1;labelBackgroundColor=none;strokeColor=#FFFFFF;fontColor=#FFFFFF;" parent="C-vyLk0tnHw3VtMMgP7b-2" vertex="1">
          <mxGeometry y="30" width="250" height="30" as="geometry" />
        </mxCell>
        <mxCell id="C-vyLk0tnHw3VtMMgP7b-4" value="PK" style="shape=partialRectangle;overflow=hidden;connectable=0;fillColor=none;top=0;left=0;bottom=0;right=0;fontStyle=1;labelBackgroundColor=none;strokeColor=#FFFFFF;fontColor=#FFFFFF;" parent="C-vyLk0tnHw3VtMMgP7b-3" vertex="1">
          <mxGeometry width="30" height="30" as="geometry">
            <mxRectangle width="30" height="30" as="alternateBounds" />
          </mxGeometry>
        </mxCell>
        <mxCell id="C-vyLk0tnHw3VtMMgP7b-5" value="ServiceID" style="shape=partialRectangle;overflow=hidden;connectable=0;fillColor=none;top=0;left=0;bottom=0;right=0;align=left;spacingLeft=6;fontStyle=5;labelBackgroundColor=none;strokeColor=#FFFFFF;fontColor=#FFFFFF;" parent="C-vyLk0tnHw3VtMMgP7b-3" vertex="1">
          <mxGeometry x="30" width="220" height="30" as="geometry">
            <mxRectangle width="220" height="30" as="alternateBounds" />
          </mxGeometry>
        </mxCell>
        <mxCell id="C-vyLk0tnHw3VtMMgP7b-6" value="" style="shape=partialRectangle;collapsible=0;dropTarget=0;pointerEvents=0;fillColor=none;points=[[0,0.5],[1,0.5]];portConstraint=eastwest;top=0;left=0;right=0;bottom=0;labelBackgroundColor=none;strokeColor=#FFFFFF;fontColor=#FFFFFF;" parent="C-vyLk0tnHw3VtMMgP7b-2" vertex="1">
          <mxGeometry y="60" width="250" height="80" as="geometry" />
        </mxCell>
        <mxCell id="C-vyLk0tnHw3VtMMgP7b-7" value="FK" style="shape=partialRectangle;overflow=hidden;connectable=0;fillColor=none;top=0;left=0;bottom=0;right=0;labelBackgroundColor=none;strokeColor=#FFFFFF;fontColor=#FFFFFF;" parent="C-vyLk0tnHw3VtMMgP7b-6" vertex="1">
          <mxGeometry width="30" height="80" as="geometry">
            <mxRectangle width="30" height="80" as="alternateBounds" />
          </mxGeometry>
        </mxCell>
        <mxCell id="C-vyLk0tnHw3VtMMgP7b-8" value="StartDate&#xa;EndDate&#xa;WarrantyCost" style="shape=partialRectangle;overflow=hidden;connectable=0;fillColor=none;top=0;left=0;bottom=0;right=0;align=left;spacingLeft=6;labelBackgroundColor=none;strokeColor=#FFFFFF;fontColor=#FFFFFF;" parent="C-vyLk0tnHw3VtMMgP7b-6" vertex="1">
          <mxGeometry x="30" width="220" height="80" as="geometry">
            <mxRectangle width="220" height="80" as="alternateBounds" />
          </mxGeometry>
        </mxCell>
        <mxCell id="C-vyLk0tnHw3VtMMgP7b-23" value="Laptop" style="shape=table;startSize=30;container=1;collapsible=1;childLayout=tableLayout;fixedRows=1;rowLines=0;fontStyle=1;align=center;resizeLast=1;fillColor=#182E3E;fontColor=#FFFFFF;labelBackgroundColor=none;strokeColor=#FFFFFF;" parent="1" vertex="1">
          <mxGeometry x="70" y="120" width="180" height="170" as="geometry" />
        </mxCell>
        <mxCell id="C-vyLk0tnHw3VtMMgP7b-24" value="" style="shape=partialRectangle;collapsible=0;dropTarget=0;pointerEvents=0;fillColor=none;points=[[0,0.5],[1,0.5]];portConstraint=eastwest;top=0;left=0;right=0;bottom=1;labelBackgroundColor=none;strokeColor=#FFFFFF;fontColor=#FFFFFF;" parent="C-vyLk0tnHw3VtMMgP7b-23" vertex="1">
          <mxGeometry y="30" width="180" height="40" as="geometry" />
        </mxCell>
        <mxCell id="C-vyLk0tnHw3VtMMgP7b-25" value="PK" style="shape=partialRectangle;overflow=hidden;connectable=0;fillColor=none;top=0;left=0;bottom=0;right=0;fontStyle=1;labelBackgroundColor=none;strokeColor=#FFFFFF;fontColor=#FFFFFF;" parent="C-vyLk0tnHw3VtMMgP7b-24" vertex="1">
          <mxGeometry width="30" height="40" as="geometry">
            <mxRectangle width="30" height="40" as="alternateBounds" />
          </mxGeometry>
        </mxCell>
        <mxCell id="C-vyLk0tnHw3VtMMgP7b-26" value="DeviceID" style="shape=partialRectangle;overflow=hidden;connectable=0;fillColor=#182E3E;top=0;left=0;bottom=0;right=0;align=left;spacingLeft=6;fontStyle=5;labelBackgroundColor=none;strokeColor=#FFFFFF;fontColor=#FFFFFF;" parent="C-vyLk0tnHw3VtMMgP7b-24" vertex="1">
          <mxGeometry x="30" width="150" height="40" as="geometry">
            <mxRectangle width="150" height="40" as="alternateBounds" />
          </mxGeometry>
        </mxCell>
        <mxCell id="C-vyLk0tnHw3VtMMgP7b-27" value="" style="shape=partialRectangle;collapsible=0;dropTarget=0;pointerEvents=0;fillColor=none;points=[[0,0.5],[1,0.5]];portConstraint=eastwest;top=0;left=0;right=0;bottom=0;labelBackgroundColor=none;strokeColor=#FFFFFF;fontColor=#FFFFFF;" parent="C-vyLk0tnHw3VtMMgP7b-23" vertex="1">
          <mxGeometry y="70" width="180" height="100" as="geometry" />
        </mxCell>
        <mxCell id="C-vyLk0tnHw3VtMMgP7b-28" value="FK" style="shape=partialRectangle;overflow=hidden;connectable=0;fillColor=none;top=0;left=0;bottom=0;right=0;labelBackgroundColor=none;strokeColor=#FFFFFF;fontColor=#FFFFFF;" parent="C-vyLk0tnHw3VtMMgP7b-27" vertex="1">
          <mxGeometry width="30" height="100" as="geometry">
            <mxRectangle width="30" height="100" as="alternateBounds" />
          </mxGeometry>
        </mxCell>
        <mxCell id="C-vyLk0tnHw3VtMMgP7b-29" value="Brand&#xa;Model&#xa;Color&#xa;Year&#xa;Price&#xa;ProcessType&#xa;RAMSize&#xa;" style="shape=partialRectangle;overflow=hidden;connectable=0;fillColor=none;top=0;left=0;bottom=0;right=0;align=left;spacingLeft=6;labelBackgroundColor=none;strokeColor=#FFFFFF;fontColor=#FFFFFF;" parent="C-vyLk0tnHw3VtMMgP7b-27" vertex="1">
          <mxGeometry x="30" width="150" height="100" as="geometry">
            <mxRectangle width="150" height="100" as="alternateBounds" />
          </mxGeometry>
        </mxCell>
        <mxCell id="kAKSx6He3NFvAquy31Vt-19" value="Smartphones" style="shape=table;startSize=30;container=1;collapsible=1;childLayout=tableLayout;fixedRows=1;rowLines=0;fontStyle=1;align=center;resizeLast=1;fillColor=#182E3E;fontColor=#FFFFFF;labelBackgroundColor=none;strokeColor=#FFFFFF;" vertex="1" parent="1">
          <mxGeometry x="70" y="310" width="180" height="170" as="geometry" />
        </mxCell>
        <mxCell id="kAKSx6He3NFvAquy31Vt-20" value="" style="shape=partialRectangle;collapsible=0;dropTarget=0;pointerEvents=0;fillColor=none;points=[[0,0.5],[1,0.5]];portConstraint=eastwest;top=0;left=0;right=0;bottom=1;labelBackgroundColor=none;strokeColor=#FFFFFF;fontColor=#FFFFFF;" vertex="1" parent="kAKSx6He3NFvAquy31Vt-19">
          <mxGeometry y="30" width="180" height="40" as="geometry" />
        </mxCell>
        <mxCell id="kAKSx6He3NFvAquy31Vt-21" value="PK" style="shape=partialRectangle;overflow=hidden;connectable=0;fillColor=none;top=0;left=0;bottom=0;right=0;fontStyle=1;labelBackgroundColor=none;strokeColor=#FFFFFF;fontColor=#FFFFFF;" vertex="1" parent="kAKSx6He3NFvAquy31Vt-20">
          <mxGeometry width="30" height="40" as="geometry">
            <mxRectangle width="30" height="40" as="alternateBounds" />
          </mxGeometry>
        </mxCell>
        <mxCell id="kAKSx6He3NFvAquy31Vt-22" value="DeviceID" style="shape=partialRectangle;overflow=hidden;connectable=0;fillColor=#182E3E;top=0;left=0;bottom=0;right=0;align=left;spacingLeft=6;fontStyle=5;labelBackgroundColor=none;strokeColor=#FFFFFF;fontColor=#FFFFFF;" vertex="1" parent="kAKSx6He3NFvAquy31Vt-20">
          <mxGeometry x="30" width="150" height="40" as="geometry">
            <mxRectangle width="150" height="40" as="alternateBounds" />
          </mxGeometry>
        </mxCell>
        <mxCell id="kAKSx6He3NFvAquy31Vt-23" value="" style="shape=partialRectangle;collapsible=0;dropTarget=0;pointerEvents=0;fillColor=none;points=[[0,0.5],[1,0.5]];portConstraint=eastwest;top=0;left=0;right=0;bottom=0;labelBackgroundColor=none;strokeColor=#FFFFFF;fontColor=#FFFFFF;" vertex="1" parent="kAKSx6He3NFvAquy31Vt-19">
          <mxGeometry y="70" width="180" height="100" as="geometry" />
        </mxCell>
        <mxCell id="kAKSx6He3NFvAquy31Vt-24" value="FK" style="shape=partialRectangle;overflow=hidden;connectable=0;fillColor=none;top=0;left=0;bottom=0;right=0;labelBackgroundColor=none;strokeColor=#FFFFFF;fontColor=#FFFFFF;" vertex="1" parent="kAKSx6He3NFvAquy31Vt-23">
          <mxGeometry width="30" height="100" as="geometry">
            <mxRectangle width="30" height="100" as="alternateBounds" />
          </mxGeometry>
        </mxCell>
        <mxCell id="kAKSx6He3NFvAquy31Vt-25" value="Brand&#xa;Model&#xa;Color&#xa;Year&#xa;Price&#xa;SrceenSize&#xa;StorageCapacity" style="shape=partialRectangle;overflow=hidden;connectable=0;fillColor=none;top=0;left=0;bottom=0;right=0;align=left;spacingLeft=6;labelBackgroundColor=none;strokeColor=#FFFFFF;fontColor=#FFFFFF;" vertex="1" parent="kAKSx6He3NFvAquy31Vt-23">
          <mxGeometry x="30" width="150" height="100" as="geometry">
            <mxRectangle width="150" height="100" as="alternateBounds" />
          </mxGeometry>
        </mxCell>
        <mxCell id="kAKSx6He3NFvAquy31Vt-26" value="Tablets" style="shape=table;startSize=30;container=1;collapsible=1;childLayout=tableLayout;fixedRows=1;rowLines=0;fontStyle=1;align=center;resizeLast=1;fillColor=#182E3E;fontColor=#FFFFFF;labelBackgroundColor=none;strokeColor=#FFFFFF;" vertex="1" parent="1">
          <mxGeometry x="70" y="500" width="180" height="170" as="geometry" />
        </mxCell>
        <mxCell id="kAKSx6He3NFvAquy31Vt-27" value="" style="shape=partialRectangle;collapsible=0;dropTarget=0;pointerEvents=0;fillColor=none;points=[[0,0.5],[1,0.5]];portConstraint=eastwest;top=0;left=0;right=0;bottom=1;labelBackgroundColor=none;strokeColor=#FFFFFF;fontColor=#FFFFFF;" vertex="1" parent="kAKSx6He3NFvAquy31Vt-26">
          <mxGeometry y="30" width="180" height="40" as="geometry" />
        </mxCell>
        <mxCell id="kAKSx6He3NFvAquy31Vt-28" value="PK" style="shape=partialRectangle;overflow=hidden;connectable=0;fillColor=none;top=0;left=0;bottom=0;right=0;fontStyle=1;labelBackgroundColor=none;strokeColor=#FFFFFF;fontColor=#FFFFFF;" vertex="1" parent="kAKSx6He3NFvAquy31Vt-27">
          <mxGeometry width="30" height="40" as="geometry">
            <mxRectangle width="30" height="40" as="alternateBounds" />
          </mxGeometry>
        </mxCell>
        <mxCell id="kAKSx6He3NFvAquy31Vt-29" value="DeviceID" style="shape=partialRectangle;overflow=hidden;connectable=0;fillColor=#182E3E;top=0;left=0;bottom=0;right=0;align=left;spacingLeft=6;fontStyle=5;labelBackgroundColor=none;strokeColor=#FFFFFF;fontColor=#FFFFFF;" vertex="1" parent="kAKSx6He3NFvAquy31Vt-27">
          <mxGeometry x="30" width="150" height="40" as="geometry">
            <mxRectangle width="150" height="40" as="alternateBounds" />
          </mxGeometry>
        </mxCell>
        <mxCell id="kAKSx6He3NFvAquy31Vt-30" value="" style="shape=partialRectangle;collapsible=0;dropTarget=0;pointerEvents=0;fillColor=none;points=[[0,0.5],[1,0.5]];portConstraint=eastwest;top=0;left=0;right=0;bottom=0;labelBackgroundColor=none;strokeColor=#FFFFFF;fontColor=#FFFFFF;" vertex="1" parent="kAKSx6He3NFvAquy31Vt-26">
          <mxGeometry y="70" width="180" height="100" as="geometry" />
        </mxCell>
        <mxCell id="kAKSx6He3NFvAquy31Vt-31" value="FK" style="shape=partialRectangle;overflow=hidden;connectable=0;fillColor=none;top=0;left=0;bottom=0;right=0;labelBackgroundColor=none;strokeColor=#FFFFFF;fontColor=#FFFFFF;" vertex="1" parent="kAKSx6He3NFvAquy31Vt-30">
          <mxGeometry width="30" height="100" as="geometry">
            <mxRectangle width="30" height="100" as="alternateBounds" />
          </mxGeometry>
        </mxCell>
        <mxCell id="kAKSx6He3NFvAquy31Vt-32" value="Brand&#xa;Model&#xa;Color&#xa;Year&#xa;Price&#xa;SrceenSize&#xa;SimCard" style="shape=partialRectangle;overflow=hidden;connectable=0;fillColor=none;top=0;left=0;bottom=0;right=0;align=left;spacingLeft=6;labelBackgroundColor=none;strokeColor=#FFFFFF;fontColor=#FFFFFF;" vertex="1" parent="kAKSx6He3NFvAquy31Vt-30">
          <mxGeometry x="30" width="150" height="100" as="geometry">
            <mxRectangle width="150" height="100" as="alternateBounds" />
          </mxGeometry>
        </mxCell>
        <mxCell id="kAKSx6He3NFvAquy31Vt-33" value="Electronic Device" style="rounded=0;whiteSpace=wrap;html=1;strokeColor=#FFFFFF;fontColor=#FFFFFF;fillColor=#182E3E;" vertex="1" parent="1">
          <mxGeometry x="-270" y="365" width="120" height="60" as="geometry" />
        </mxCell>
        <mxCell id="kAKSx6He3NFvAquy31Vt-35" value="Type" style="ellipse;whiteSpace=wrap;html=1;aspect=fixed;strokeColor=#FFFFFF;fontColor=#FFFFFF;fillColor=#182E3E;" vertex="1" parent="1">
          <mxGeometry x="-110" y="368.75" width="52.5" height="52.5" as="geometry" />
        </mxCell>
        <mxCell id="kAKSx6He3NFvAquy31Vt-36" value="" style="endArrow=none;html=1;rounded=0;strokeColor=#23445D;exitX=1.012;exitY=0.587;exitDx=0;exitDy=0;exitPerimeter=0;entryX=-0.019;entryY=0.584;entryDx=0;entryDy=0;entryPerimeter=0;" edge="1" parent="1" source="kAKSx6He3NFvAquy31Vt-33" target="kAKSx6He3NFvAquy31Vt-35">
          <mxGeometry width="50" height="50" relative="1" as="geometry">
            <mxPoint x="-30" y="460" as="sourcePoint" />
            <mxPoint x="20" y="410" as="targetPoint" />
          </mxGeometry>
        </mxCell>
        <mxCell id="kAKSx6He3NFvAquy31Vt-37" value="" style="endArrow=none;html=1;rounded=0;strokeColor=#23445D;exitX=1.012;exitY=0.507;exitDx=0;exitDy=0;exitPerimeter=0;" edge="1" parent="1" source="kAKSx6He3NFvAquy31Vt-33" target="kAKSx6He3NFvAquy31Vt-35">
          <mxGeometry width="50" height="50" relative="1" as="geometry">
            <mxPoint x="-170" y="400" as="sourcePoint" />
            <mxPoint x="-120" y="350" as="targetPoint" />
          </mxGeometry>
        </mxCell>
        <mxCell id="kAKSx6He3NFvAquy31Vt-38" value="" style="endArrow=none;html=1;rounded=0;strokeColor=#23445D;entryX=-0.014;entryY=0.206;entryDx=0;entryDy=0;entryPerimeter=0;" edge="1" parent="1" target="C-vyLk0tnHw3VtMMgP7b-27">
          <mxGeometry width="50" height="50" relative="1" as="geometry">
            <mxPoint x="-70" y="368.75" as="sourcePoint" />
            <mxPoint x="-20" y="318.75" as="targetPoint" />
          </mxGeometry>
        </mxCell>
        <mxCell id="kAKSx6He3NFvAquy31Vt-39" value="" style="endArrow=none;html=1;rounded=0;strokeColor=#23445D;entryX=-0.019;entryY=0.138;entryDx=0;entryDy=0;entryPerimeter=0;" edge="1" parent="1" target="kAKSx6He3NFvAquy31Vt-23">
          <mxGeometry width="50" height="50" relative="1" as="geometry">
            <mxPoint x="-57.5" y="394.5" as="sourcePoint" />
            <mxPoint x="60" y="395" as="targetPoint" />
          </mxGeometry>
        </mxCell>
        <mxCell id="kAKSx6He3NFvAquy31Vt-40" value="" style="endArrow=none;html=1;rounded=0;strokeColor=#23445D;entryX=-0.023;entryY=0.19;entryDx=0;entryDy=0;entryPerimeter=0;exitX=0.85;exitY=0.904;exitDx=0;exitDy=0;exitPerimeter=0;" edge="1" parent="1" source="kAKSx6He3NFvAquy31Vt-35" target="kAKSx6He3NFvAquy31Vt-30">
          <mxGeometry width="50" height="50" relative="1" as="geometry">
            <mxPoint x="-30" y="460" as="sourcePoint" />
            <mxPoint x="20" y="410" as="targetPoint" />
          </mxGeometry>
        </mxCell>
        <mxCell id="kAKSx6He3NFvAquy31Vt-41" value="" style="edgeStyle=entityRelationEdgeStyle;fontSize=12;html=1;endArrow=ERzeroToMany;startArrow=ERmandOne;rounded=0;strokeColor=#23445D;" edge="1" parent="1" target="C-vyLk0tnHw3VtMMgP7b-6">
          <mxGeometry width="100" height="100" relative="1" as="geometry">
            <mxPoint x="250" y="200" as="sourcePoint" />
            <mxPoint x="350" y="100" as="targetPoint" />
          </mxGeometry>
        </mxCell>
      </root>
    </mxGraphModel>
  </diagram>
</mxfile>
